<svg width="128" height="32" fill="none" xmlns="http://www.w3.org/2000/svg"><path d="M18.367 17.953c0-2.694-.631-4.853-1.895-6.477-1.503-1.947-3.736-2.92-6.698-2.92-1.74.058-3.445.5-4.99 1.295-1.799.848-2.705 1.619-2.705 2.305.068.14.16.268.274.376.138.13.239.292.293.473h1.231c1.347-.704 2.27-1.173 2.77-1.406 1.776-.829 3.014-1.243 3.713-1.243 1.256 0 2.461.49 3.356 1.366a3.607 3.607 0 0 1 1.381 2.59c0 1.728-1.303 2.97-3.91 3.725L3.91 20.109C1.304 21.31 0 23.29 0 26.05a5.258 5.258 0 0 0 1.8 4.06 6.126 6.126 0 0 0 4.273 1.632 7.857 7.857 0 0 0 3.212-.726 12.318 12.318 0 0 0 2.606-1.593c-.612.059-1.205.104-1.778.15-.574.045-1.082.058-1.538.058a7.243 7.243 0 0 1-3.57-.726 3.48 3.48 0 0 1-1.332-1.4 3.454 3.454 0 0 1-.375-1.89c0-1.67 1.133-3.25 3.4-4.74 2.042-1.343 3.866-2.012 5.473-2.008a3.008 3.008 0 0 1 2.424.913c.574.66.86 1.74.86 3.238v.648a4.73 4.73 0 0 1-.417 1.943 13.809 13.809 0 0 1-2.274 3.29 3.55 3.55 0 0 1 1.955 1.761c.22.374.543.677.931.875.388.197.824.28 1.258.24.378 0 .717-.318 1.023-.953.3-.604.456-1.269.456-1.943l-.02-10.925Z" fill="#6C98C9"></path><path d="M33.158 8.756a5.436 5.436 0 0 1-.567-.226 3.709 3.709 0 0 0-1.043-.104 5.229 5.229 0 0 0-3.01 1.256c-1.114.836-2 1.257-2.671 1.257a3.757 3.757 0 0 1-1.857-.79 4.23 4.23 0 0 0-1.479-.784c-.345 0-.651.272-.97.816a3.05 3.05 0 0 0-.45 1.418v17.927c-.05.477.06.958.313 1.366.406.318.843.595 1.303.83.353-.317.662-.678.918-1.076.235-.44.35-.933.332-1.43v-7.54a10.469 10.469 0 0 1 2.15-6.54 13.823 13.823 0 0 1 4.15-3.543l2.9-1.593-.02-1.244ZM50.58 26.437a6.329 6.329 0 0 1-2.353 1.996 6.372 6.372 0 0 1-3.023.653 7.085 7.085 0 0 1-4.717-1.47 6.03 6.03 0 0 1-1.915-3.167 11.799 11.799 0 0 1-.359-3.122v-1.243c0-3.049.476-5.307 1.427-6.775 1.056-1.636 2.813-2.456 5.271-2.46a6.66 6.66 0 0 1 3.15.647c.981.47 1.83 1.173 2.473 2.046a10.562 10.562 0 0 1 1.902 6.542 10.317 10.317 0 0 1-1.856 6.353Zm2.899-13.788a9.686 9.686 0 0 0-4.02-3.394 7.711 7.711 0 0 0-3.193-.829 10.322 10.322 0 0 0-3.818 1.036 5.002 5.002 0 0 1-1.954.454 2.218 2.218 0 0 1-1.454-.444 2.194 2.194 0 0 1-.82-1.273 14.092 14.092 0 0 1-.313-3.646c0-1.127 0-1.943-.059-2.357C37.718.9 37.275.253 36.513.253a1.007 1.007 0 0 0-.828.518 2.16 2.16 0 0 0-.339 1.224 379.584 379.584 0 0 0-.13 4.151c-.045 1.626-.078 3.925-.123 6.91-.046 2.986-.06 7.734-.06 14.249a12.53 12.53 0 0 0 .268 3.31 1.577 1.577 0 0 0 1.648 1.081 3.422 3.422 0 0 0 2.235-.648 4.123 4.123 0 0 1 1.069-.777c.143-.01.286-.01.43 0 .892.337 1.765.648 2.606.978a8.06 8.06 0 0 0 2.795.473 8.17 8.17 0 0 0 3.876-.931 8.114 8.114 0 0 0 2.965-2.65 13.311 13.311 0 0 0 2.502-8.167 12.636 12.636 0 0 0-1.948-7.325ZM60.802 10.291c.01-.492-.12-.978-.378-1.399a1.15 1.15 0 0 0-1.036-.608c-.703 0-1.153.427-1.355 1.295a25.756 25.756 0 0 0-.3 4.909v11.489c0 3.834.502 5.751 1.505 5.751a1.361 1.361 0 0 0 1.056-.712 2.741 2.741 0 0 0 .508-1.626V10.291Zm.137-7.545c.144-.301.217-.631.215-.965a1.694 1.694 0 0 0-.62-1.405 1.904 1.904 0 0 0-1.858-.234 1.844 1.844 0 0 0-.623.428 1.943 1.943 0 0 0-.567 1.4 1.746 1.746 0 0 0 .742 1.508c.315.196.678.304 1.05.311.366-.002.723-.11 1.029-.31.269-.188.486-.44.632-.733Z" fill="#949698"></path><path d="m76.354 19.689-6.672-2.526c-2.39-.94-3.583-2.163-3.583-3.685a3.44 3.44 0 0 1 1.27-2.28 4.965 4.965 0 0 1 3.564-1.47 7.064 7.064 0 0 1 2.548.583c.869.34 1.876.749 3.023 1.224.17-.037.333-.107.476-.207a.537.537 0 0 1 .273-.085V10.04a9.223 9.223 0 0 0-2.743-1.47 14.247 14.247 0 0 0-3.577-.33c-2.393 0-4.293.524-5.7 1.573a4.892 4.892 0 0 0-1.576 1.786 4.859 4.859 0 0 0-.542 2.314c0 2.012 1.223 3.642 3.668 4.89 2.267.863 4.541 1.74 6.822 2.629 2.43 1.03 3.648 2.325 3.648 3.886 0 .887-.508 1.78-1.525 2.694a5.504 5.504 0 0 1-3.772 1.49 7.274 7.274 0 0 1-3.023-.784 28.84 28.84 0 0 0-3.753-1.62 1.074 1.074 0 0 0-.984.415 1.663 1.663 0 0 0-.182.499 7.865 7.865 0 0 0 3.603 2.752c1.436.557 2.967.832 4.509.81a8.983 8.983 0 0 0 5.635-1.697 5.473 5.473 0 0 0 1.658-2c.383-.789.57-1.658.544-2.534 0-2.426-1.203-4.295-3.609-5.608" fill="#6C98C9"></path><path d="M97.522 25.873a6.11 6.11 0 0 1-2.335 2.491c-1 .593-2.15.89-3.314.858a5.893 5.893 0 0 1-2.551-.647 5.856 5.856 0 0 1-2.01-1.691c-1.533-1.792-2.297-4.193-2.293-7.202a10.602 10.602 0 0 1 1.876-6.334 6.215 6.215 0 0 1 2.29-2.1 6.258 6.258 0 0 1 3.027-.736 5.892 5.892 0 0 1 2.983.685 5.85 5.85 0 0 1 2.23 2.086 11.216 11.216 0 0 1 1.589 6.276c.06 2.201-.467 4.38-1.525 6.314h.033Zm2.241-13.542A10.15 10.15 0 0 0 95.3 8.918a8.957 8.957 0 0 0-3.316-.77 9.058 9.058 0 0 0-5.988 2.033 10.741 10.741 0 0 0-3.146 4.637 14.377 14.377 0 0 0-.893 5.052 12.367 12.367 0 0 0 2.143 7.428 10.096 10.096 0 0 0 4.405 3.459 9.527 9.527 0 0 0 3.687.848 8.83 8.83 0 0 0 5.864-1.988 10.546 10.546 0 0 0 3.088-4.534 13.9 13.9 0 0 0 .9-4.902c.004-3.204-.745-5.825-2.248-7.863l-.033.013ZM113.849.615a2.188 2.188 0 0 0-.892-.161 4.24 4.24 0 0 0-1.929.32 4.209 4.209 0 0 0-1.576 1.15 7.266 7.266 0 0 0-1.212 3.063c-.332 1.67-.521 2.59-.561 2.668-.251.562-1.016 1.306-2.293 2.235-.502.362-.756.712-.756 1.055 0 .344.293.816.88 1.244a8.278 8.278 0 0 1 1.583 1.386c.609.903.908 1.977.854 3.063V30.18c0 .894.286 1.438.86 1.613.163.045.391.11.684.207a5.969 5.969 0 0 0 .951-1.58 4.92 4.92 0 0 0 .28-1.73V15.22a2.47 2.47 0 0 1 1.108-2.008 17.674 17.674 0 0 0 2.502-2.24c-.782-.649-1.551-1.354-2.313-2.028a3.241 3.241 0 0 1-1.303-2.357 3.087 3.087 0 0 1 1.062-2.319c1.737-1.658 2.675-2.737 2.814-3.238l-.749-.415M125.779 7.953a3.97 3.97 0 0 1-1.773-1.36c-.378-.557-.586-1.71-.651-3.458-.065-1.749-.502-2.59-1.362-2.59-.56 0-.938.375-1.147 1.12a8.271 8.271 0 0 0-.208 2.15v.952a4.424 4.424 0 0 1-1.108 2.383c-.586.687-1.244 1.458-1.954 2.3l2.124 2.292a3.41 3.41 0 0 1 .964 2.137v12.305a6.005 6.005 0 0 0 1.121 3.724 4.502 4.502 0 0 0 1.701 1.345c.669.304 1.402.44 2.136.397a4.59 4.59 0 0 0 1.525-.123c.169-.362.332-.725.501-1.1a34.3 34.3 0 0 1-3.192-2.688 4.68 4.68 0 0 1-1.023-2.63c-.039-.431-.059-2.288-.059-5.57 0-3.717.228-6.154.685-7.311a2.437 2.437 0 0 1 1.772-1.393A3.524 3.524 0 0 0 128 9.002a21.078 21.078 0 0 0-2.208-1.055" fill="#949698"></path></svg>